<svg width="14" height="18" viewBox="0 0 14 18" fill="none" xmlns="http://www.w3.org/2000/svg">
<path d="M11.193 9.99531C10.991 9.43022 10.7081 8.8943 10.458 8.33577C11.3388 7.71089 12.477 7.30111 13.6998 7.13413V5.47168C12.3056 5.66077 10.913 6.15489 9.52176 6.95403C9.18927 7.14507 8.96469 7.16038 8.7197 6.88112C10.0169 4.9445 9.93519 3.16246 8.48929 1.85875C7.24973 0.739506 5.28103 0.709611 4.01377 1.79677C3.30685 2.38944 2.86373 3.2382 2.78151 4.15702C2.67068 5.207 3.02359 6.10676 3.72941 6.87602C3.69861 6.90903 3.6652 6.93951 3.62951 6.96716C2.16684 7.84943 1.26051 9.11158 1.06583 10.8192C0.983435 11.5396 1.00896 12.2732 1.00021 13.0009C0.991456 13.8029 1.26051 14.0603 2.07205 14.061H4.61605C4.49828 15.0672 4.4929 16.0833 4.60001 17.0907H6.24059C6.08703 16.082 6.13061 15.0531 6.36892 14.061H6.74881C8.00003 14.061 9.25149 14.061 10.5032 14.061C11.1128 14.061 11.4299 13.7541 11.419 13.1394C11.3993 12.0858 11.5575 11.0154 11.193 9.99531ZM6.21872 2.6506C6.69135 2.65132 7.14477 2.8378 7.48115 3.16981C7.81753 3.50183 8.00991 3.95276 8.0168 4.42535C8.02482 5.47678 7.25994 6.2577 6.21945 6.26061C5.17895 6.26353 4.40679 5.49574 4.40314 4.44431C4.40428 4.20723 4.45219 3.97272 4.5441 3.75418C4.63602 3.53565 4.77014 3.3374 4.93879 3.17078C5.10744 3.00416 5.30731 2.87245 5.52694 2.78319C5.74657 2.69393 5.98165 2.64887 6.21872 2.6506ZM9.73686 12.4212H2.68891C2.46288 10.828 2.95943 9.35293 4.17273 8.54795C4.79017 8.14215 5.51463 7.92976 6.25344 7.93795C6.99225 7.94613 7.71182 8.17451 8.32012 8.59389C9.47218 9.39741 9.96289 10.8965 9.73686 12.4205V12.4212Z" fill="white" stroke="white" stroke-width="0.2"/>
</svg>
