<svg width="15" height="19" viewBox="0 0 15 19" fill="none" xmlns="http://www.w3.org/2000/svg">
<path d="M13.9936 11.4747C13.9586 9.79771 13.2885 8.42472 11.9702 7.37912C11.7471 7.20194 11.5058 7.04809 11.2703 6.88257C12.7665 5.23762 12.3479 3.12673 11.1726 1.97249C10.57 1.38781 9.77414 1.04411 8.9354 1.00636C8.09665 0.968608 7.27313 1.23942 6.62048 1.7676C5.07323 3.04434 4.95001 4.86721 6.27414 6.88476C6.02696 7.16184 5.80457 7.14288 5.47208 6.95184C3.84121 6.01659 2.20768 5.49962 0.571472 5.40095V7.06924C2.01008 7.16184 3.4465 7.58474 4.62554 8.3817C3.41296 9.85021 3.5464 11.59 3.57921 13.2991C3.58796 13.7752 3.94378 14.0618 4.46512 14.0632C5.71707 14.0669 6.96829 14.0632 8.21951 14.0632H8.60377C8.94282 15.2933 8.90928 16.6677 8.57314 17.9955H10.2502C10.4874 16.7803 10.5299 15.4695 10.3778 14.0632H10.727C11.505 14.0632 12.2823 14.0632 13.0603 14.0632C13.6859 14.0632 13.99 13.7511 13.9929 13.1153C13.9995 12.5677 14.0046 12.0209 13.9936 11.4747ZM6.97777 4.38014C7.00023 3.90684 7.20772 3.4613 7.55553 3.13952C7.90335 2.81774 8.36364 2.64546 8.83726 2.6598C9.31087 2.67415 9.7599 2.87396 10.0876 3.2162C10.4153 3.55844 10.5955 4.01572 10.5892 4.48951C10.5615 5.55188 9.77186 6.28832 8.69345 6.25915C7.69015 6.2329 6.94496 5.4148 6.97777 4.38014ZM12.3042 12.4205H5.25698C5.0324 10.9002 5.51291 9.41126 6.67298 8.59243C7.88628 7.73713 9.55166 7.71745 10.8196 8.54795C12.0235 9.33907 12.5324 10.8243 12.3042 12.4205Z" fill="white" stroke="white" stroke-width="0.2"/>
</svg>
