<svg width="21" height="15" viewBox="0 0 21 15" fill="none" xmlns="http://www.w3.org/2000/svg">
<path d="M15.433 8.49548L13.5474 6.76959C15.102 5.02984 14.4363 2.76584 13.1916 1.72389C11.8996 0.641101 9.89294 0.698703 8.65704 1.85659C7.46415 2.97437 6.99166 5.15307 8.49662 6.81042C8.16267 7.06344 7.80904 7.29385 7.50134 7.57457C7.19364 7.85529 6.92385 8.19289 6.63292 8.51153C4.97557 7.74738 3.49758 6.02586 2.72469 3.96237H0.974731C1.70753 6.45533 3.33936 8.49184 5.84544 10.0646C5.83159 11.1715 5.80096 12.2243 5.81336 13.2772C5.81846 13.722 6.17283 14.0006 6.65625 14.0013C9.54805 14.0052 12.4403 14.0052 15.3331 14.0013C15.8581 14.0013 16.1928 13.695 16.1935 13.1737C16.1935 12.1456 16.1607 11.1175 16.1417 10.0704C18.3438 8.68069 19.8643 6.94507 20.7033 4.8636H18.8804C18.1126 6.41887 16.9205 7.75029 15.433 8.49548ZM10.9808 2.57261C11.4658 2.57357 11.9307 2.76631 12.2742 3.10877C12.6176 3.45122 12.8116 3.91561 12.8139 4.40059C12.8139 5.41629 12.006 6.2096 10.9757 6.20887C10.4985 6.20165 10.0431 6.00792 9.7069 5.66915C9.37071 5.33037 9.18048 4.87347 9.17692 4.39621C9.17692 3.42207 10.0256 2.56532 10.9808 2.57261ZM14.5537 12.3432H7.44446C7.3278 10.8776 7.57061 9.55712 8.80287 8.5961C9.89659 7.743 11.5627 7.62342 12.7826 8.3307C14.3203 9.22244 14.6681 10.6589 14.5544 12.3447L14.5537 12.3432Z" fill="white" stroke="white" stroke-width="0.2"/>
</svg>
